<svg width="24" height="24" viewBox="0 0 24 24" fill="none" xmlns="http://www.w3.org/2000/svg">
<path d="M19.7398 4.26013C18.4571 2.97739 14.163 -1.10111 12.7793 0.282735C11.3955 1.66648 15.4739 5.96052 16.7568 7.24325C18.0395 8.52608 22.3335 12.6045 23.7173 11.2207C25.101 9.83698 21.0226 5.54295 19.7398 4.26013Z" fill="#C5CBD1"/>
<path d="M8.27704 4.78508C5.3444 7.71768 4.33743 11.9835 5.64881 15.9179C5.68331 16.0212 5.74157 16.1154 5.81873 16.1926L7.80745 18.1814C7.8847 18.2585 7.97887 18.3168 8.08228 18.3513C12.0166 19.6627 16.2824 18.6557 19.215 15.723L22.1482 12.79C20.5176 12.3823 18.4064 10.8816 15.7624 8.23757C13.1185 5.59363 11.6177 3.48257 11.2101 1.85193L8.27704 4.78508Z" fill="#C5CBD1"/>
<path d="M4.42298 16.5939L3.22397 17.8125H2.10914C0.945891 17.8125 0 18.7387 0 19.9021C0 21.0256 0.883219 21.9476 1.99162 22.0083C2.02031 22.5274 2.23589 23.0119 2.60634 23.3823C3.0045 23.7805 3.5347 24 4.09791 24C5.26125 24 6.1875 23.0542 6.1875 21.8908V20.776L7.40611 19.577C7.18903 19.4736 6.9832 19.3459 6.813 19.1757L4.82428 17.187C4.65412 17.0168 4.52639 16.811 4.42298 16.5939V16.5939Z" fill="#C5CBD1"/>
</svg>
