<svg width="40" height="40" fill="none" xmlns="http://www.w3.org/2000/svg"><g fill="#000"><path fill-rule="evenodd" clip-rule="evenodd" d="M27.273 15.611a2.618 2.618 0 01-1.864.772 2.618 2.618 0 01-1.863-.772 2.618 2.618 0 01-.773-1.863c0-.704.274-1.366.773-1.864a2.64 2.64 0 013.727 0 2.62 2.62 0 01.772 1.864c0 .704-.274 1.366-.772 1.863zm-1.864-2.936a1.07 1.07 0 00-1.073 1.073 1.07 1.07 0 001.074 1.073c.286 0 .556-.112.758-.314a1.068 1.068 0 000-1.518 1.069 1.069 0 00-.759-.314zm.516 8.825a2.37 2.37 0 01-1.681.695 2.37 2.37 0 01-1.68-.696 2.38 2.38 0 010-3.361 2.38 2.38 0 013.36 0 2.38 2.38 0 010 3.361zm-1.68-2.495a.813.813 0 00-.577 1.39.816.816 0 001.152-1.152.812.812 0 00-.576-.238zm-4.09-2.156h-1.087c-.847 0-1.536-.69-1.536-1.537v-1.086c0-.848.69-1.537 1.536-1.537h1.087c.848 0 1.537.689 1.537 1.537v1.086c0 .848-.69 1.537-1.537 1.537zm-.026-2.598h-1.035v1.035h1.035v-1.035z"/><path fill-rule="evenodd" clip-rule="evenodd" d="M39.873 33.792l-4.886-7.5a.782.782 0 00-.654-.355h-6.45l4.212-15.72a2.627 2.627 0 00-.687-2.563 2.626 2.626 0 00-2.563-.687L10.363 11.92a3.43 3.43 0 00-2.223 1.86 3.433 3.433 0 00-.013 2.898 29.039 29.039 0 006.745 9.26H6.364V4.688h27.188v15.78a.781.781 0 001.562 0V4.23l1.137-1.137a.782.782 0 00.229-.552V.78a.781.781 0 00-.782-.78H4.218a.781.781 0 00-.782.781v1.76a.78.78 0 00.229.552L4.802 4.23v22.26L.123 33.798a.777.777 0 00-.123.42v5c0 .432.35.782.781.782H39.22c.431 0 .781-.35.781-.781v-5a.776.776 0 00-.127-.427zM29.25 8.477a1.079 1.079 0 011.054.283c.278.278.384.672.282 1.053l-4.454 16.621a2.814 2.814 0 00-1.823-.668h-.254a1.512 1.512 0 01-1.516-1.506 3.076 3.076 0 00-3.077-3.068 1.513 1.513 0 01-1.516-1.506 3.076 3.076 0 00-3.078-3.069 1.512 1.512 0 01-1.515-1.505 3.05 3.05 0 00-.876-2.141L29.25 8.477zM9.554 14.444a1.873 1.873 0 00-.006 1.581 27.48 27.48 0 0013.49 13.49 1.872 1.872 0 002.527-1.015 1.258 1.258 0 00-1.257-1.172h-.254a3.076 3.076 0 01-3.077-3.068c0-.83-.68-1.506-1.516-1.506a3.076 3.076 0 01-3.078-3.068c0-.83-.68-1.506-1.515-1.506a3.077 3.077 0 01-3.078-3.069 1.51 1.51 0 00-1.46-1.503c-.336.19-.608.48-.776.836zM4.998 1.562h29.919v.655l-.908.908H5.906l-.908-.908v-.655zM3.281 31.875a.726.726 0 01-.07-.004L2.21 33.438h35.568L33.91 27.5h-6.445l-.321 1.2a3.431 3.431 0 01-1.86 2.222 3.435 3.435 0 01-2.898.013 29.016 29.016 0 01-5.66-3.435H6.01l-1.8 2.813h9.934a.781.781 0 110 1.562H3.28zM21.26 35a1.484 1.484 0 01-1.26.703c-.532 0-.998-.282-1.26-.703h2.52zM1.562 35v3.438h36.876V35H22.944A3.052 3.052 0 0120 37.266c-1.41 0-2.6-.963-2.945-2.266H1.563z"/><path d="M18.05 31.094a.787.787 0 00-.229-.553.786.786 0 00-.552-.229.787.787 0 00-.553.23.787.787 0 00-.229.552.787.787 0 00.781.781.786.786 0 00.553-.229.787.787 0 00.229-.552zm16.283-8.281a.787.787 0 00-.552.228.788.788 0 00-.23.553.787.787 0 00.781.781.787.787 0 00.553-.229.788.788 0 00.23-.552.788.788 0 00-.23-.553.787.787 0 00-.552-.229z"/></g></svg>