<svg width="20" height="20" fill="none" xmlns="http://www.w3.org/2000/svg"><rect width="20" height="20" rx="10" fill="#E52D2D"/><path d="M8.969 9.494h.795c.4-.004.718-.108.95-.312.237-.204.355-.5.355-.886 0-.372-.099-.66-.296-.865-.193-.208-.49-.311-.891-.311-.351 0-.64.102-.865.306-.226.2-.338.463-.338.79H7.374c0-.402.105-.767.316-1.096a2.15 2.15 0 01.892-.768c.383-.187.811-.28 1.284-.28.78 0 1.393.197 1.837.591.447.39.671.935.671 1.633 0 .35-.113.682-.338.994-.222.307-.51.54-.865.698.43.147.755.378.977.693.226.315.339.69.339 1.128 0 .701-.242 1.26-.725 1.675-.48.416-1.112.623-1.896.623-.752 0-1.368-.2-1.848-.601-.48-.401-.72-.935-.72-1.6h1.306c0 .343.114.622.343.837.233.215.545.322.935.322.405 0 .723-.107.956-.322.233-.215.349-.526.349-.934 0-.412-.122-.73-.365-.951-.244-.222-.605-.333-1.085-.333h-.768V9.494z" fill="#fff"/></svg>