<svg width="85" height="40" fill="none" xmlns="http://www.w3.org/2000/svg"><g fill="#fff"><path d="M39.373 19.956a.74.74 0 00.855.604.74.74 0 00.604-.855c-.126-.805-.176-1.887-.151-2.717.025-.428.025-.931 0-1.51-.126-4.527-.352-7.923-.68-10.162-.326-2.315-1.383-4.126-3.773-3.9-1.081.101-1.51.303-1.786 1.485-.17.707-.152 1.533-.128 2.614l.002.103c.026.578.026.88.026.93 0 1.957.073 3.987.171 6.714l.005.128.1 3.12c.076 1.081.076 2.264-.126 3.144-.1.403.126.78.529.88a.708.708 0 00.88-.528c.277-1.081.252-2.616.176-3.547-.025-.276-.075-1.76-.15-4.402.075.025.125.025.2.025.252 0 .806.026 1.66.076.58.025 1.007.05 1.334.075l.024.69v.002c.026.699.058 1.57.077 2.604.025.578.025 1.056 0 1.408-.026.88.025 2.113.15 3.019zm-37.809.83a.732.732 0 00.78-.68c.176-2.037.201-4.35.126-6.942 1.861-.528 3.019-1.409 3.497-2.641.427-1.208.327-3.497-.277-5.383-.68-2.214-2.038-3.9-3.975-3.421-.629.125-1.031.377-1.232.729-.076.1-.1.226-.1.352-.026.05-.026.126-.026.201v.478c.024.663.049.966.237 3.29l.014.182c.428 5.635.529 9.986.277 13.055a.732.732 0 00.68.78zm.83-9.131a212.91 212.91 0 00-.327-4.805c-.2-2.213-.226-2.792-.251-3.42v-.252l.201-.05c.453-.101.88.05 1.258.452.805.88 1.383 2.792 1.484 4.578.1 1.811.05 2.717-2.365 3.497zm8.855 8.88c-1.082.125-1.962.176-2.641.15-.403 0-.705-.352-.705-.754 0-.403.353-.704.755-.704.554.025 1.233-.026 2.013-.101a26.769 26.769 0 01-.024-.352c-.021-.326-.05-.767-.102-1.334-.193-2.221-.224-3.446-.226-5.833v-1.295c.001-1.019.006-2.122.024-3.31.026-1.586.026-2.793.026-3.648v-.05h-1.51a.73.73 0 010-1.46h1.9c1.563-.001 2.534-.006 2.905-.025.402 0 .755.302.755.704 0 .403-.302.755-.705.755-.553.025-1.182.025-1.886.025V9.14c-.05 3.849-.05 5.76 0 5.76.025.479.075 1.284.176 2.416.065.583.092 1.073.115 1.471l.01.189c.881-.1 1.61-.151 2.19-.151a.73.73 0 010 1.459c-.58 0-1.435.075-2.567.201a.696.696 0 01-.327.076c-.05 0-.1 0-.176-.025zm7.446.2c.805.076 3.069.051 4.075-.05.403-.025.68-.402.654-.804-.025-.403-.402-.68-.805-.654-.905.1-3.119.125-3.823.05h-.076l.227-1.183c.048-.176.085-.352.126-.54v-.002c.023-.108.047-.22.075-.338a9.91 9.91 0 00.071-.304c.042-.184.08-.353.13-.5.05-.227.076-.353.076-.403.679-3.019 1.66-6.616 2.993-10.817 0-.025.126-.302.402-.855.227-.529.302-.981.227-1.384C22.87 1.92 22.04 1.77 21.135 1.77c-.226 0-.629 0-1.207.025l-.717.017c-.725.017-1.166.028-1.32.008a.663.663 0 00-.53.151c-.175.126-.25.302-.276.503-.025.403.252.78.654.805.216.02.708.009 1.5-.009l.739-.016c.629-.025 1.006-.025 1.157-.025h.352c.025-.025.025-.025.05-.025.026 0 .05 0 .026.025a.605.605 0 00.038-.021c.025-.015.037-.022.037-.004.025.125-.025.276-.15.503-.17.383-.3.654-.383.825a2.87 2.87 0 00-.096.206c-1.333 4.251-2.34 7.899-2.993 10.968-.022.022-.044.123-.084.302l-.017.075-.201.83c-.075.327-.126.604-.176.88a21.765 21.765 0 00-.277 1.334l-.01.086c-.022.165-.04.31-.04.417v.252c.075.402.302.628.629.729l.251.076c.176.025.378.05.604.05zm12.452-.05c-1.006.101-3.27.126-4.075.05-.227 0-.428-.024-.604-.05l-.252-.075c-.327-.1-.553-.327-.628-.73v-.251c0-.107.018-.252.039-.417l.01-.086c.051-.327.152-.78.278-1.333.05-.277.1-.554.176-.88l.2-.83.018-.076c.04-.18.061-.28.083-.302.655-3.07 1.66-6.717 2.994-10.968.01-.03.043-.097.096-.206.082-.17.213-.442.382-.825.126-.227.176-.378.15-.503 0-.018-.012-.01-.037.004l-.038.02c.026-.024 0-.024-.025-.024s-.025 0-.05.025h-.352c-.151 0-.529 0-1.157.025l-.739.016c-.792.018-1.284.029-1.5.01-.403-.026-.68-.403-.654-.806.025-.201.1-.377.276-.503a.663.663 0 01.529-.15c.155.019.595.008 1.32-.01l.717-.016c.579-.025.981-.025 1.208-.025.905 0 1.735.15 1.912 1.182.075.403 0 .855-.227 1.384-.276.553-.402.83-.402.855-1.334 4.2-2.315 7.798-2.994 10.817 0 .05-.025.176-.075.402a5.51 5.51 0 00-.13.501 9.34 9.34 0 01-.072.304c-.027.118-.05.23-.074.338v.001c-.04.19-.079.365-.127.541l-.226 1.183h.075c.705.075 2.918.05 3.824-.05.402-.026.78.251.805.654.025.402-.252.78-.654.805zm7.328-9.946c.246.016.448.029.57.035a58.454 58.454 0 00-.503-5.257c-.276-1.811-.88-2.767-2.163-2.641-.226.025-.352.025-.402.025a.803.803 0 00-.126.327c-.1.528-.1 1.157-.076 2.34.026.578.026.905.026.98 0 1.183.025 2.541.075 4.126a.893.893 0 01.252-.05c.543 0 1.63.07 2.347.115zM4.36 38.688c-.062.069-.199.103-.41.103-.1 0-.316-.013-.652-.038-.335-.024-.69-.037-1.062-.037-.447 0-.789.01-1.025.028-.236.019-.49.034-.764.047a.661.661 0 01-.298-.075C.05 38.666 0 38.561 0 38.4c0-.087.025-.205.075-.354.173-.546.279-.894.316-1.043.038-.15.069-.547.093-1.193.025-.646.038-1.124.038-1.434v-5.18c0-.398-.01-.78-.028-1.146a5.092 5.092 0 00-.103-.867 7.761 7.761 0 00-.167-.605 1.575 1.575 0 01-.094-.438c0-.15.056-.252.168-.308a.744.744 0 01.336-.084c.323 0 .59.016.8.047.212.03.467.046.765.046.41 0 .692-.015.848-.046.155-.031.307-.047.456-.047.261 0 .466.174.615.522.112.273.224.54.335.801.212.472.385.808.522 1.006.236.36.485.54.745.54.137 0 .286-.08.448-.241.21-.212.478-.59.8-1.137.41-.696.681-1.118.811-1.267a.648.648 0 01.513-.224c.223 0 .404.013.54.038a4 4 0 00.634.037 12.415 12.415 0 001.565-.075c.162 0 .28.031.354.093.075.063.112.156.112.28 0 .36-.075.733-.224 1.118-.149.385-.223.994-.223 1.826v5.646c0 .82.074 1.584.223 2.292l.177.782c.069.299.103.51.103.634a.413.413 0 01-.084.27c-.056.069-.17.103-.345.103-.124 0-.36-.013-.708-.038-.348-.024-.72-.037-1.118-.037-.41 0-.733.013-.969.037a6.924 6.924 0 01-.727.038c-.323 0-.484-.106-.484-.317.161-.51.298-1.028.41-1.556.112-.528.168-1.152.168-1.873v-3.428c0-.236-.062-.354-.187-.354-.062 0-.161.09-.298.27-.137.18-.242.314-.317.4l-.484.709c-.199.236-.41.354-.634.354a.854.854 0 01-.568-.196c-.155-.13-.37-.438-.643-.922a72.705 72.705 0 00-.242-.4c-.087-.144-.18-.215-.28-.215-.074 0-.12.028-.14.084a.767.767 0 00-.027.233v3.428c0 .683.056 1.292.167 1.826.038.199.137.534.299 1.006.074.249.111.441.111.578a.386.386 0 01-.093.27zm16.165-.01c-.193.075-.457.113-.792.113l-2.236-.056-2.236-.038c-.733 0-1.273.016-1.621.047-.348.031-.59.047-.727.047-.15 0-.289-.025-.42-.075-.13-.05-.195-.136-.195-.26 0-.36.056-.647.168-.858.248-.472.373-1.28.373-2.422v-5.982c0-.757-.044-1.335-.131-1.732-.112-.41-.224-.826-.335-1.249 0-.149.062-.264.186-.345.124-.08.323-.12.596-.12l1.342.055c.211 0 .54.006.987.019.398.01.707.017.928.018h1.476a13.4 13.4 0 001.211-.055l.783-.038a.72.72 0 01.42.112c.105.075.157.217.157.429 0 .161-.012.385-.037.67a9.867 9.867 0 00-.037.858c0 .087.006.186.019.298.012.111.034.245.065.4.03.156.059.292.084.41.025.118.037.227.037.326 0 .386-.199.578-.596.578-.174 0-.348-.05-.522-.149a33.461 33.461 0 01-.429-.298 2.64 2.64 0 00-1.509-.466c-.447 0-.782.087-1.006.26-.224.175-.335.386-.335.634a.6.6 0 00.39.597c.262.111.622.167 1.082.167.186 0 .5-.012.94-.037.442-.025.674-.037.7-.037.434 0 .791.053 1.07.158.28.106.42.314.42.624 0 .212-.109.395-.326.55-.218.155-.587.233-1.109.233h-2.404c-.26 0-.453.05-.577.15-.124.099-.187.303-.187.614v2.832c0 .398.112.665.336.802.149.086.379.13.69.13h.242c.422 0 .754-.019.996-.056.243-.037.538-.143.886-.317.149-.074.298-.155.447-.242.26-.161.472-.242.633-.242.174 0 .292.046.354.14a.513.513 0 01.093.288c0 .125-.015.274-.046.448a3.8 3.8 0 00-.047.652l.038.931c0 .249-.097.41-.29.485zm1.947.113c.087 0 .301-.01.643-.028a20.75 20.75 0 011.127-.028c.335 0 .634.01.895.028.26.018.534.028.82.028a.718.718 0 00.307-.066c.093-.043.14-.127.14-.251a97.168 97.168 0 01-.41-1.137 5.235 5.235 0 01-.187-1.472V31.73c0-.236.022-.401.066-.494.043-.093.096-.14.158-.14.298 0 .714.354 1.248 1.062.584.77.876 1.485.876 2.143v1.789c0 .832-.068 1.36-.205 1.584a1.368 1.368 0 00-.205.726c0 .15.075.261.224.336a.75.75 0 00.298.056c.273-.013.537-.028.792-.047s.53-.028.83-.028c.16 0 .409.013.744.037.336.025.622.038.858.038a.75.75 0 00.298-.056c.087-.038.13-.124.13-.261l-.298-1.155c-.075-.398-.112-.938-.112-1.621v-6.485c0-.708.044-1.31.13-1.807.088-.497.187-.944.299-1.342 0-.211-.15-.317-.447-.317-.348 0-.612.01-.792.028-.18.019-.519.028-1.016.028l-1.807-.056c-.236 0-.385.031-.448.093a.305.305 0 00-.093.224c0 .05.038.118.112.205.124.137.227.267.308.391.08.125.158.302.233.531.074.23.111.463.111.7v.297c0 .062-.03.112-.093.15a.307.307 0 00-.074.018c-.075 0-.212-.112-.41-.335a15.588 15.588 0 00-1.007-1.025c-.41-.398-.751-.69-1.024-.876-.36-.248-.677-.373-.95-.373l-.56.038-.633.018-.801-.018-.504-.038c-.273 0-.41.13-.41.392 0 .149.032.28.094.39.285.535.46.92.521 1.156.137.485.205 1.187.205 2.106v6.335c0 .36-.024.652-.074.876a4.67 4.67 0 01-.242.745c-.15.398-.224.628-.224.69 0 .161.059.26.177.298.118.037.245.056.382.056zm17.879-.699c-.715.565-1.773.848-3.177.848-1.628 0-2.764-.36-3.41-1.081-.46-.51-.69-1.236-.69-2.18v-6.82c0-.236-.012-.553-.037-.95-.025-.398-.056-.665-.093-.801-.037-.137-.09-.317-.158-.54a1.93 1.93 0 01-.103-.523c0-.198.124-.298.373-.298.161 0 .397.01.708.028.276.017.625.026 1.049.028h.162c.41 0 .72-.01.932-.028.21-.018.453-.028.726-.028.236 0 .354.1.354.298a.998.998 0 01-.065.243 6.085 6.085 0 00-.233.894c-.1.447-.167.78-.205.997a5.957 5.957 0 00-.056.94v5.87c0 .36.056.63.168.811.112.18.323.27.634.27.372 0 .62-.143.745-.428.062-.15.093-.354.093-.615v-6.522c0-.373-.01-.658-.028-.857a3.165 3.165 0 00-.14-.652 17.47 17.47 0 01-.186-.466 1.289 1.289 0 01-.112-.447c0-.112.028-.196.084-.252.056-.056.159-.084.308-.084.323 0 .618.006.885.019l.773.037h.267c.466-.002.796-.008.99-.018l.662-.038c.249 0 .373.1.373.298 0 .224-.05.466-.15.727-.248.659-.372 1.49-.372 2.497v6.224c0 1.167-.357 2.034-1.071 2.599z" fill-rule="evenodd" clip-rule="evenodd"/><path d="M62.838 10.285a2.26 2.26 0 00-.214-.912 32.7 32.7 0 00-4.348.821c0 .031-.01.06-.01.091a2.289 2.289 0 002.286 2.286 2.289 2.289 0 002.286-2.286z"/><path fill-rule="evenodd" clip-rule="evenodd" d="M81.122 12.362c-.892 0-1.75-.202-2.55-.601-.63-.315-1.34-.6-2.082-.868a3.428 3.428 0 01-3.367 2.82 3.432 3.432 0 01-3.428-3.428v-.94a30.463 30.463 0 00-3.43-.206c-.426 0-.86.018-1.295.038.091.362.154.732.154 1.108a4.576 4.576 0 01-4.572 4.572c-2.313 0-4.21-1.732-4.51-3.965-.74.267-1.448.552-2.077.867a5.636 5.636 0 01-2.507.588.41.41 0 01-.084-.011.45.45 0 00-.078-.012l2.4 4.454V28.57a3.432 3.432 0 003.428 3.428 3.435 3.435 0 003.34-2.652l4.796 9.06a1.144 1.144 0 002.013 0l3.433-6.53a4.553 4.553 0 01-1.011.122 4.571 4.571 0 110-9.142 4.56 4.56 0 014.268 2.973l7.259-13.482c-.017 0-.033.004-.049.007a.216.216 0 01-.051.007zm-17.141 9.352a3.432 3.432 0 01-3.429-3.429 1.142 1.142 0 112.286 0 1.144 1.144 0 002.286 0 1.142 1.142 0 112.285 0 3.432 3.432 0 01-3.428 3.429zm5.714-4.572a1.143 1.143 0 102.285 0 1.143 1.143 0 00-2.285 0z"/><path d="M69.695 25.142a2.289 2.289 0 00-2.286 2.286 2.288 2.288 0 002.286 2.285 2.289 2.289 0 002.286-2.285 2.289 2.289 0 00-2.286-2.286zM84.19 8.18a3.435 3.435 0 00-1.534-4.6C78.24 1.372 71.961 0 66.27 0c-5.695 0-11.976 1.372-16.393 3.58a3.433 3.433 0 00-1.534 4.602c.827 1.646 2.944 2.361 4.6 1.532 3.476-1.738 8.705-2.86 13.322-2.86 1.859 0 3.813.189 5.716.52v2.911a1.143 1.143 0 102.285 0V7.853c1.973.48 3.817 1.109 5.323 1.862A3.426 3.426 0 0084.19 8.18z"/></g></svg>