<svg width="182" height="84" fill="none" xmlns="http://www.w3.org/2000/svg"><g fill="#000"><path d="M84.52 42.84c.162.863.972 1.457 1.836 1.295.864-.162 1.458-.972 1.296-1.836-.27-1.728-.378-4.05-.324-5.832.054-.918.054-1.998 0-3.24-.27-9.72-.756-17.01-1.458-21.816-.702-4.968-2.97-8.856-8.1-8.37-2.322.216-3.24.648-3.834 3.186-.367 1.519-.327 3.291-.275 5.613l.005.22c.054 1.241.054 1.89.054 1.997 0 4.2.157 8.558.368 14.413l.01.275.216 6.696c.162 2.322.162 4.86-.27 6.75-.216.864.27 1.674 1.134 1.89.864.216 1.674-.27 1.89-1.134.594-2.322.54-5.616.378-7.614-.054-.594-.162-3.78-.324-9.45.162.054.27.054.432.054.54 0 1.728.054 3.564.162 1.242.054 2.16.108 2.862.162.014.445.032.94.052 1.484v.002c.056 1.5.124 3.37.164 5.588.054 1.242.054 2.268 0 3.024-.054 1.89.054 4.536.324 6.48zM3.358 44.62a1.571 1.571 0 001.674-1.458c.378-4.374.432-9.342.27-14.904 3.996-1.134 6.48-3.024 7.506-5.67.918-2.592.702-7.506-.594-11.556-1.458-4.752-4.374-8.37-8.532-7.344-1.35.27-2.214.81-2.646 1.566C.874 5.47.82 5.74.82 6.01c-.054.108-.054.27-.054.432V7.47c.053 1.422.105 2.073.508 7.061l.032.391C2.224 27.017 2.44 36.36 1.9 42.947a1.571 1.571 0 001.458 1.674zm1.782-19.6a457.151 457.151 0 00-.702-10.314c-.432-4.752-.486-5.994-.54-7.344v-.54l.432-.108c.972-.216 1.89.108 2.7.972 1.728 1.89 2.97 5.994 3.186 9.828.216 3.888.108 5.832-5.076 7.506zm19.008 19.062c-2.322.27-4.212.378-5.67.324-.864 0-1.512-.756-1.512-1.62 0-.864.756-1.512 1.62-1.512 1.188.054 2.646-.054 4.32-.216a61.994 61.994 0 01-.05-.754c-.046-.7-.106-1.649-.22-2.864-.415-4.77-.481-7.398-.486-12.522v-2.78c.003-2.187.014-4.556.054-7.108.054-3.402.054-5.994.054-7.83v-.108h-3.24a1.567 1.567 0 010-3.132h4.078c3.354-.004 5.44-.014 6.236-.054.864 0 1.62.648 1.62 1.512s-.648 1.62-1.512 1.62c-1.188.054-2.538.054-4.05.054V19.62c-.108 8.262-.108 12.366 0 12.366.054 1.026.162 2.754.378 5.184.14 1.252.199 2.305.247 3.16l.023.404c1.89-.216 3.456-.324 4.698-.324a1.567 1.567 0 010 3.132c-1.242 0-3.078.162-5.508.432a1.495 1.495 0 01-.702.162c-.108 0-.216 0-.378-.054zm15.984.432c1.728.162 6.588.108 8.748-.108.864-.054 1.458-.864 1.404-1.728-.054-.864-.864-1.458-1.728-1.404-1.944.216-6.696.27-8.208.108h-.162l.486-2.538c.103-.378.184-.756.272-1.163.05-.232.101-.472.16-.727.056-.225.106-.443.154-.652.09-.395.172-.759.278-1.076.108-.486.162-.756.162-.864 1.458-6.48 3.564-14.202 6.426-23.22 0-.054.27-.648.864-1.836.486-1.134.648-2.106.486-2.97-.378-2.214-2.16-2.538-4.104-2.538-.486 0-1.35 0-2.592.054-.566.012-1.08.025-1.539.036-1.556.037-2.502.06-2.835.018a1.423 1.423 0 00-1.134.324c-.378.27-.54.648-.594 1.08-.054.864.54 1.674 1.404 1.728.464.042 1.52.019 3.22-.02h.002l1.584-.034c1.35-.054 2.16-.054 2.484-.054h.756c.054-.054.054-.054.108-.054s.108 0 .054.054c.032-.016.059-.032.081-.045.054-.031.081-.047.081-.009.054.27-.054.594-.324 1.08-.362.823-.644 1.405-.821 1.771a5.75 5.75 0 00-.205.443c-2.862 9.126-5.022 16.956-6.426 23.544-.048.048-.095.264-.18.648l-.036.162-.432 1.782c-.162.702-.27 1.296-.378 1.89-.27 1.188-.486 2.16-.594 2.862l-.023.186a7.79 7.79 0 00-.085.894v.54c.162.864.648 1.35 1.35 1.566l.54.162c.378.054.81.108 1.296.108zm26.73-.108c-2.16.216-7.02.27-8.748.108a8.96 8.96 0 01-1.296-.108l-.54-.162c-.702-.216-1.188-.702-1.35-1.566v-.54c0-.23.04-.54.085-.894l.023-.186c.108-.702.324-1.674.594-2.862.108-.594.216-1.188.378-1.89l.432-1.782.036-.162c.085-.384.132-.6.18-.648 1.404-6.588 3.564-14.418 6.426-23.544a5.75 5.75 0 01.205-.443c.177-.366.459-.948.821-1.77.27-.487.378-.81.324-1.08 0-.04-.027-.023-.081.008-.022.013-.05.03-.081.045.054-.054 0-.054-.054-.054s-.054 0-.108.054h-.756c-.324 0-1.134 0-2.484.054l-1.584.034h-.001c-1.7.039-2.757.062-3.221.02-.864-.054-1.458-.864-1.404-1.728.054-.432.216-.81.594-1.08.324-.27.702-.378 1.134-.324.333.042 1.278.02 2.835-.018.46-.011.973-.024 1.539-.036 1.242-.054 2.106-.054 2.592-.054 1.944 0 3.726.324 4.104 2.538.162.864 0 1.836-.486 2.97-.594 1.188-.864 1.782-.864 1.836-2.862 9.018-4.968 16.74-6.426 23.22 0 .108-.054.378-.162.864a11.81 11.81 0 00-.279 1.076c-.047.21-.097.427-.153.652-.059.255-.11.496-.16.727-.088.407-.169.785-.272 1.163l-.486 2.538h.162c1.512.162 6.264.108 8.208-.108.864-.054 1.674.54 1.728 1.404.054.864-.54 1.674-1.404 1.728zm15.732-21.352c.527.034.962.062 1.224.076a125.502 125.502 0 00-1.08-11.286c-.594-3.888-1.89-5.94-4.644-5.67-.486.054-.756.054-.864.054a1.728 1.728 0 00-.27.702c-.216 1.134-.216 2.484-.162 5.022.054 1.242.054 1.944.054 2.106 0 2.538.054 5.454.162 8.856.162-.054.378-.108.54-.108 1.166 0 3.5.15 5.04.248zM9.36 83.051c-.133.147-.427.22-.88.22-.213 0-.68-.027-1.4-.08-.72-.053-1.48-.08-2.28-.08-.96 0-1.693.02-2.2.06-.507.04-1.053.073-1.64.1a1.42 1.42 0 01-.64-.16c-.213-.107-.32-.333-.32-.68 0-.187.053-.44.16-.76.373-1.173.6-1.92.68-2.24.08-.32.147-1.173.2-2.56a89.45 89.45 0 00.08-3.08v-11.12c0-.853-.02-1.673-.06-2.46-.04-.787-.113-1.407-.22-1.86a16.677 16.677 0 00-.36-1.3c-.133-.413-.2-.727-.2-.94 0-.32.12-.54.36-.66s.48-.18.72-.18c.693 0 1.267.033 1.72.1.453.067 1 .1 1.64.1.88 0 1.487-.033 1.82-.1.333-.067.66-.1.98-.1.56 0 1 .373 1.32 1.12.24.587.48 1.16.72 1.72.453 1.013.827 1.733 1.12 2.16.507.773 1.04 1.16 1.6 1.16.293 0 .613-.173.96-.52.453-.453 1.027-1.267 1.72-2.44.88-1.493 1.46-2.4 1.74-2.72.28-.32.647-.48 1.1-.48.48 0 .867.027 1.16.08.293.053.747.08 1.36.08.827 0 1.473-.013 1.94-.04.467-.027.94-.067 1.42-.12.347 0 .6.067.76.2.16.133.24.333.24.6 0 .773-.16 1.573-.48 2.4-.32.827-.48 2.133-.48 3.92v12.12c0 1.76.16 3.4.48 4.92.107.48.233 1.04.38 1.68.147.64.22 1.093.22 1.36 0 .24-.06.433-.18.58-.12.147-.367.22-.74.22-.267 0-.773-.027-1.52-.08a33.802 33.802 0 00-2.4-.08c-.88 0-1.573.027-2.08.08-.507.053-1.027.08-1.56.08-.693 0-1.04-.227-1.04-.68.347-1.093.64-2.207.88-3.34s.36-2.473.36-4.02v-7.36c0-.507-.133-.76-.4-.76-.133 0-.347.193-.64.58-.293.387-.52.673-.68.86l-1.04 1.52c-.427.507-.88.76-1.36.76-.48 0-.887-.14-1.22-.42-.333-.28-.793-.94-1.38-1.98-.16-.267-.333-.553-.52-.86-.187-.307-.387-.46-.6-.46-.16 0-.26.06-.3.18-.04.12-.06.287-.06.5v7.36c0 1.467.12 2.773.36 3.92.08.427.293 1.147.64 2.16.16.533.24.947.24 1.24 0 .24-.067.433-.2.58zm34.7-.02c-.413.16-.98.24-1.7.24l-4.8-.12-4.8-.08c-1.573 0-2.733.033-3.48.1-.747.067-1.267.1-1.56.1a2.5 2.5 0 01-.9-.16c-.28-.107-.42-.293-.42-.56 0-.773.12-1.387.36-1.84.533-1.013.8-2.747.8-5.2v-12.84c0-1.627-.093-2.867-.28-3.72-.24-.88-.48-1.773-.72-2.68 0-.32.133-.567.4-.74.267-.173.693-.26 1.28-.26l2.88.12c.453 0 1.16.013 2.12.04a96.76 96.76 0 001.991.04H38.4c.853 0 1.72-.04 2.6-.12l1.68-.08c.373 0 .673.08.9.24.227.16.34.467.34.92 0 .347-.027.827-.08 1.44-.053.613-.08 1.227-.08 1.84 0 .187.013.4.04.64.027.24.073.527.14.86.067.333.127.627.18.88.053.253.08.487.08.7 0 .827-.427 1.24-1.28 1.24a2.24 2.24 0 01-1.12-.32 70.584 70.584 0 01-.92-.64 5.667 5.667 0 00-3.24-1c-.96 0-1.68.187-2.16.56-.48.373-.72.827-.72 1.36 0 .613.28 1.04.84 1.28.56.24 1.333.36 2.32.36.4 0 1.073-.027 2.02-.08.947-.053 1.447-.08 1.5-.08.933 0 1.7.113 2.3.34.6.227.9.673.9 1.34 0 .453-.233.847-.7 1.18-.467.333-1.26.5-2.38.5H36.4c-.56 0-.973.107-1.24.32-.267.213-.4.653-.4 1.32v6.08c0 .853.24 1.427.72 1.72.32.187.813.28 1.48.28h.52c.907 0 1.62-.04 2.14-.12.52-.08 1.153-.307 1.9-.68.32-.16.64-.333.96-.52.56-.347 1.013-.52 1.36-.52.373 0 .627.1.76.3.133.2.2.407.2.62 0 .267-.033.587-.1.96s-.1.84-.1 1.4l.08 2c0 .533-.207.88-.62 1.04zm4.18.24c.187 0 .647-.02 1.38-.06.733-.04 1.54-.06 2.42-.06.72 0 1.36.02 1.92.06.56.04 1.147.06 1.76.06.24 0 .46-.047.66-.14.2-.093.3-.273.3-.54-.293-.8-.587-1.613-.88-2.44-.267-.907-.4-1.96-.4-3.16v-8.88c0-.507.047-.86.14-1.06.093-.2.207-.3.34-.3.64 0 1.533.76 2.68 2.28 1.253 1.653 1.88 3.187 1.88 4.6v3.84c0 1.787-.147 2.92-.44 3.4-.293.48-.44 1-.44 1.56 0 .32.16.56.48.72.187.08.4.12.64.12.587-.027 1.153-.06 1.7-.1.547-.04 1.14-.06 1.78-.06.347 0 .88.027 1.6.08.72.053 1.333.08 1.84.08.24 0 .453-.04.64-.12.187-.08.28-.267.28-.56l-.64-2.48c-.16-.853-.24-2.013-.24-3.48v-13.92c0-1.52.093-2.813.28-3.88a29.5 29.5 0 01.64-2.88c0-.453-.32-.68-.96-.68-.747 0-1.313.02-1.7.06-.387.04-1.113.06-2.18.06l-3.88-.12c-.507 0-.827.067-.96.2a.655.655 0 00-.2.48c0 .107.08.253.24.44.267.293.487.573.66.84.173.267.34.647.5 1.14.16.493.24.993.24 1.5v.64c0 .133-.067.24-.2.32a.653.653 0 00-.16.04c-.16 0-.453-.24-.88-.72-.72-.8-1.44-1.533-2.16-2.2-.88-.853-1.613-1.48-2.2-1.88-.773-.533-1.453-.8-2.04-.8l-1.2.08-1.36.04-1.72-.04-1.08-.08c-.587 0-.88.28-.88.84 0 .32.067.6.2.84.613 1.147.987 1.973 1.12 2.48.293 1.04.44 2.547.44 4.52v13.6c0 .773-.053 1.4-.16 1.88-.107.48-.28 1.013-.52 1.6-.32.853-.48 1.347-.48 1.48 0 .347.127.56.38.64.253.08.527.12.82.12zm38.38-1.5c-1.533 1.213-3.807 1.82-6.82 1.82-3.493 0-5.933-.773-7.32-2.32-.987-1.093-1.48-2.653-1.48-4.68v-14.64c0-.507-.027-1.187-.08-2.04-.053-.853-.12-1.427-.2-1.72a41.01 41.01 0 00-.34-1.16c-.147-.48-.22-.853-.22-1.12 0-.427.267-.64.8-.64.347 0 .853.02 1.52.06.593.036 1.343.055 2.252.06h.348c.88 0 1.547-.02 2-.06.453-.04.973-.06 1.56-.06.507 0 .76.213.76.64 0 .08-.047.253-.14.52-.093.267-.187.573-.28.92-.093.347-.167.68-.22 1a49.78 49.78 0 00-.44 2.14c-.08.467-.12 1.14-.12 2.02v12.6c0 .773.12 1.353.36 1.74s.693.58 1.36.58c.8 0 1.333-.307 1.6-.92.133-.32.2-.76.2-1.32v-14c0-.8-.02-1.413-.06-1.84a6.793 6.793 0 00-.3-1.4c-.187-.453-.32-.787-.4-1-.16-.4-.24-.72-.24-.96s.06-.42.18-.54c.12-.12.34-.18.66-.18.693 0 1.327.013 1.9.04.573.027 1.127.053 1.66.08h.574c1-.004 1.709-.017 2.126-.04.493-.027.967-.053 1.42-.08.533 0 .8.213.8.64 0 .48-.107 1-.32 1.56-.533 1.413-.8 3.2-.8 5.36v13.36c0 2.507-.767 4.367-2.3 5.58z" fill-rule="evenodd" clip-rule="evenodd"/><path d="M134.893 22.08c0-.695-.188-1.343-.46-1.96a70.17 70.17 0 00-9.332 1.763c-.002.067-.021.13-.021.196a4.913 4.913 0 004.907 4.907 4.913 4.913 0 004.906-4.907z"/><path fill-rule="evenodd" clip-rule="evenodd" d="M174.143 26.538c-1.915 0-3.757-.434-5.475-1.292-1.353-.676-2.874-1.289-4.468-1.863-.619 3.436-3.616 6.056-7.227 6.056-4.059 0-7.36-3.301-7.36-7.36v-2.02a65.405 65.405 0 00-7.363-.44c-.914 0-1.847.038-2.779.08.195.778.329 1.572.329 2.38 0 5.413-4.401 9.813-9.813 9.813-4.967 0-9.037-3.718-9.682-8.51-1.59.573-3.108 1.185-4.459 1.86a12.097 12.097 0 01-5.383 1.263.882.882 0 01-.179-.024.935.935 0 00-.167-.025l5.15 9.56v25.316c0 4.058 3.301 7.36 7.36 7.36 3.485 0 6.41-2.434 7.17-5.693l10.295 19.448a2.454 2.454 0 004.322 0l7.37-14.015a9.779 9.779 0 01-2.171.26c-5.42 0-9.813-4.394-9.813-9.813 0-5.42 4.393-9.814 9.813-9.814 4.207 0 7.767 2.662 9.162 6.383l15.583-28.94a.551.551 0 00-.105.015.535.535 0 01-.11.015zm-36.797 20.074c-4.058 0-7.359-3.302-7.359-7.36a2.452 2.452 0 012.453-2.453 2.452 2.452 0 012.453 2.453c0 1.354 1.1 2.454 2.453 2.454 1.354 0 2.454-1.1 2.454-2.454a2.452 2.452 0 012.453-2.453 2.452 2.452 0 012.453 2.453c0 4.058-3.301 7.36-7.36 7.36zm12.267-9.813a2.453 2.453 0 104.906 0 2.453 2.453 0 00-4.906 0z"/><path d="M149.613 53.972a4.913 4.913 0 00-4.907 4.907 4.913 4.913 0 004.907 4.906 4.913 4.913 0 004.906-4.906 4.913 4.913 0 00-4.906-4.907zm31.116-36.412c1.813-3.626.337-8.056-3.292-9.874C167.957 2.945 154.478 0 142.26 0c-12.225 0-25.709 2.945-35.189 7.686-3.632 1.818-5.11 6.245-3.294 9.877 1.775 3.534 6.32 5.07 9.875 3.29 7.463-3.73 18.687-6.14 28.598-6.14 3.99 0 8.185.405 12.269 1.115v6.251a2.454 2.454 0 004.907 0v-5.222c4.234 1.033 8.193 2.38 11.427 3.998a7.354 7.354 0 009.876-3.294z"/></g></svg>