<svg width="24" height="19" viewBox="0 0 24 19" fill="none" xmlns="http://www.w3.org/2000/svg">
<path fill-rule="evenodd" clip-rule="evenodd" d="M0.826205 3.05397L23.2749 5.15076C23.6635 5.18709 23.9606 5.51317 23.9606 5.90341V17.5349C23.9606 17.952 23.6221 18.2908 23.2046 18.2908C23.2023 18.2908 23.2019 18.2909 23.2015 18.2911C23.1951 18.2936 23.1873 18.2929 14.7276 17.5025L0.685606 16.1907C0.297071 16.1543 0 15.8283 0 15.438V11.9903C0 11.5728 0.338457 11.2344 0.755906 11.2344C1.57696 11.2344 2.24499 10.5664 2.24499 9.74534C2.24499 8.92424 1.57696 8.25621 0.755906 8.25621C0.338457 8.25621 0 7.9178 0 7.50031V3.80657C0 3.36083 0.384189 3.01235 0.826205 3.05397ZM6.61701 10.5567C6.61701 11.5365 7.41132 12.3308 8.39116 12.3308C9.37101 12.3308 10.1653 11.5365 10.1653 10.5567C10.1653 9.57683 9.37101 8.78251 8.39116 8.78251C7.41132 8.78251 6.61701 9.57683 6.61701 10.5567ZM15.3978 14.8589C14.9216 14.8589 14.5356 14.4729 14.5356 13.9967C14.5356 13.5204 14.9216 13.1344 15.3978 13.1344C15.8741 13.1344 16.2601 13.5204 16.2601 13.9967C16.2601 14.4729 15.8741 14.8589 15.3978 14.8589ZM14.7558 9.27446C14.7558 10.2543 15.5502 11.0486 16.53 11.0486C17.5098 11.0486 18.3042 10.2543 18.3042 9.27446C18.3042 8.29462 17.5098 7.50031 16.53 7.50031C15.5502 7.50031 14.7558 8.29462 14.7558 9.27446Z" fill="#C5CBD1"/>
<path d="M21.1377 3.43279C21.7436 3.48939 22.1504 2.82547 21.8249 2.31131L20.584 0.351435C20.4225 0.0964586 20.1249 -0.0379508 19.8266 0.00929326L8.71928 1.77514C8.42698 1.82162 8.44073 2.24682 8.73539 2.27432L21.1377 3.43279Z" fill="#C5CBD1"/>
</svg>
